<svg xmlns="http://www.w3.org/2000/svg" viewBox="0 0 1024 1024">
<defs>
 <linearGradient id="bg" x1="0" y1="0" x2="1" y2="1"><stop stop-color="#0B3456"/><stop offset=".48" stop-color="#071E35"/><stop offset="1" stop-color="#031322"/></linearGradient>
 <linearGradient id="silver" x1="0" y1="0" x2="1" y2="1"><stop stop-color="#FFFFFF"/><stop offset=".18" stop-color="#BFD7EA"/><stop offset=".42" stop-color="#FFFFFF"/><stop offset=".67" stop-color="#88A9C2"/><stop offset=".86" stop-color="#EAF7FF"/><stop offset="1" stop-color="#9DB9D0"/></linearGradient>
 <linearGradient id="ice" x1="0" y1="1" x2="1" y2="0"><stop stop-color="#0874BF"/><stop offset=".28" stop-color="#36A9EF"/><stop offset=".48" stop-color="#D9F5FF"/><stop offset=".62" stop-color="#FFFFFF"/><stop offset=".78" stop-color="#53BDF7"/><stop offset="1" stop-color="#0B70B7"/></linearGradient>
 <radialGradient id="glow"><stop stop-color="#51B9F2" stop-opacity=".28"/><stop offset="1" stop-color="#51B9F2" stop-opacity="0"/></radialGradient>
 <filter id="ds"><feDropShadow dx="0" dy="22" stdDeviation="22" flood-color="#000" flood-opacity=".38"/></filter>
</defs>
<rect x="42" y="42" width="940" height="940" rx="245" fill="#E6F1FA"/>
<rect x="58" y="58" width="908" height="908" rx="225" fill="url(#bg)" filter="url(#ds)"/>
<circle cx="770" cy="235" r="245" fill="url(#glow)"/>
<path d="M245 215h198c116 0 181 55 181 140 0 48-23 84-65 107 51 21 79 61 79 115 0 92-72 138-193 138H245V215zm98 80v126h100c55 0 82-22 82-63 0-42-27-63-82-63H343zm0 207v132h112c56 0 84-23 84-66 0-44-28-66-84-66H343z" fill="url(#silver)"/>
<!-- penetrating Y: the diagonal beam deliberately crosses the B -->
<path d="M500 202h112l110 173 119-173h113L778 493v222H675V493L500 202z" fill="url(#ice)"/>
<path d="M503 211L815 684" stroke="#FFFFFF" stroke-width="9" opacity=".48"/>
<path d="M474 235L735 625" stroke="#65C7FF" stroke-width="3" opacity=".7"/>
<path d="M158 818C350 900 690 903 873 811" fill="none" stroke="#74C9F2" stroke-width="3" opacity=".16"/>
</svg>